<?xml version="1.0" standalone="no"?>
<!DOCTYPE svg PUBLIC "-//W3C//DTD SVG 20010904//EN"
 "http://www.w3.org/TR/2001/REC-SVG-20010904/DTD/svg10.dtd">
<svg version="1.0" xmlns="http://www.w3.org/2000/svg"
 width="300.000000pt" height="150.000000pt" viewBox="0 0 300.000000 150.000000"
 preserveAspectRatio="xMidYMid meet">

<g transform="translate(0.000000,150.000000) scale(0.100000,-0.100000)"
fill="#000000" stroke="none">
<path d="M573 1406 c-133 -33 -241 -119 -299 -240 -19 -39 -34 -79 -34 -89 0
-31 -18 -55 -65 -87 l-45 -31 0 -134 c0 -114 2 -135 15 -135 13 0 12 -6 -4
-39 -11 -21 -32 -52 -46 -70 -30 -34 -22 -38 37 -17 50 18 48 5 -7 -40 -24
-21 -42 -41 -39 -45 6 -10 73 1 106 17 15 8 31 14 36 14 4 0 13 -26 20 -57 14
-69 61 -171 91 -197 14 -13 21 -15 21 -6 0 7 14 2 34 -14 19 -14 37 -26 39
-26 3 0 -4 18 -15 39 -23 46 -38 138 -38 234 0 42 -8 89 -20 125 -16 43 -21
82 -21 160 0 56 2 106 5 111 3 5 26 12 51 15 62 10 197 57 275 96 l65 33 -38
-47 c-21 -25 -34 -46 -28 -46 25 0 184 56 264 93 74 34 90 38 98 26 6 -8 8
-91 6 -204 -3 -163 -7 -198 -25 -249 -12 -32 -29 -115 -38 -184 -9 -69 -22
-143 -30 -164 -13 -37 -12 -38 6 -28 10 6 26 20 34 32 l16 22 0 -21 c0 -31 24
-20 52 25 18 30 23 32 28 17 5 -15 10 -12 27 17 35 60 72 163 79 222 l7 57
-27 -7 -26 -6 0 137 0 136 28 -3 c27 -3 27 -4 30 -80 l3 -78 29 0 30 0 0 134
0 135 -54 36 c-47 31 -54 41 -60 76 -10 63 -52 143 -106 202 -110 120 -298
174 -467 133z m-323 -691 c0 -125 -1 -135 -19 -135 -10 0 -23 6 -29 13 -12 14
-19 228 -8 245 4 7 18 12 32 12 l24 0 0 -135z"/>
<path d="M1553 1350 c-64 -38 -63 -32 -63 -533 l0 -454 23 -34 c43 -65 63 -69
340 -69 l247 0 0 -55 0 -55 -135 0 -135 0 0 -35 0 -35 330 0 330 0 0 35 0 35
-135 0 -135 0 0 54 0 55 263 3 c252 3 263 4 293 25 64 46 64 45 64 533 0 483
1 472 -60 524 l-32 26 -581 0 c-560 0 -583 -1 -614 -20z m1166 -65 c16 -8 31
-22 35 -30 3 -9 6 -208 6 -441 l0 -425 -25 -24 -24 -25 -550 0 -549 0 -26 31
-26 31 0 411 c0 440 1 449 50 474 19 10 150 13 553 13 444 0 532 -2 556 -15z"/>
<path d="M2474 1195 c-12 -31 4 -45 53 -45 l47 0 -67 -68 c-67 -67 -81 -97
-51 -109 11 -4 37 15 83 61 36 36 70 66 74 66 4 0 7 -20 7 -45 0 -33 5 -47 16
-52 30 -11 46 25 42 99 -5 96 -19 108 -120 108 -61 0 -80 -3 -84 -15z"/>
<path d="M1934 990 c-46 -18 -54 -46 -54 -178 0 -117 1 -124 25 -147 l24 -25
221 0 c303 0 304 1 298 200 -3 108 -4 113 -31 136 -28 24 -30 24 -245 23 -119
0 -227 -4 -238 -9z m468 -37 c15 -14 18 -32 18 -131 0 -93 -3 -119 -17 -134
-15 -16 -36 -18 -241 -18 -196 0 -228 2 -244 17 -15 14 -18 32 -18 131 0 93 3
119 17 134 15 16 36 18 241 18 196 0 228 -2 244 -17z"/>
<path d="M2136 938 c-9 -5 -16 -19 -17 -31 l0 -22 -11 22 c-20 42 -61 39 -76
-5 -9 -27 -9 -27 -16 -4 -11 33 -63 31 -72 -2 -6 -27 3 -66 15 -66 5 0 6 11 3
25 -3 21 0 25 18 25 19 0 21 -4 16 -25 -7 -29 8 -33 24 -7 8 12 13 13 16 5 10
-23 21 -14 16 12 -3 20 0 25 17 25 18 0 20 -4 15 -25 -7 -29 3 -32 23 -7 10
12 16 14 19 5 10 -23 21 -14 16 12 -3 20 0 25 17 25 18 0 20 -4 15 -25 -8 -30
12 -34 21 -4 16 49 -19 89 -59 67z"/>
<path d="M2316 938 c-9 -5 -16 -18 -16 -28 0 -11 -4 -20 -10 -20 -5 0 -10 6
-10 14 0 19 -28 28 -51 16 -23 -13 -26 -72 -4 -90 13 -11 14 -8 9 19 -6 27 -4
31 15 31 18 0 20 -4 15 -32 -5 -31 -5 -32 10 -14 9 11 16 24 16 29 0 5 7 4 15
-3 13 -11 15 -8 15 14 0 19 5 26 19 26 14 0 17 -6 13 -25 -5 -29 14 -34 23 -6
15 49 -20 91 -59 69z"/>
<path d="M1780 595 l-65 -66 -5 48 c-4 43 -8 48 -30 48 -24 0 -25 -3 -28 -74
-2 -54 1 -79 13 -97 15 -24 20 -25 103 -22 79 3 87 5 87 23 0 17 -8 20 -47 23
-27 2 -48 6 -48 10 0 3 30 37 66 73 46 46 65 72 61 83 -12 30 -43 16 -107 -49z"/>
</g>
</svg>
